<svg display="none" width="0" height="0" version="1.1" xmlns="http://www.w3.org/2000/svg" xmlns:xlink="http://www.w3.org/1999/xlink">
<defs>
<symbol id="simicon-stack-overflow" viewBox="0 0 805 1024">
	<title>stack-overflow</title>
	<path class="path1" d="M0 1023.429v-420.571h69.143v353.143h530.286v-353.143h68.571v400.571l-0.571 20v0.571l-667.429-0.571zM126.286 887.429v-86.286l404-0.571v86.286zM129.714 738.857l8-85.714 402.286 37.143-7.429 85.714zM154.286 556l22.286-83.429 390.286 104.571-22.286 83.429zM225.714 347.429l44-74.286 348 205.714-44 74.286zM404 133.143l71.429-49.143 227.429 334.286-70.857 48.571zM649.143 14.857l85.143-14.857 69.143 398.286-85.143 14.857z"></path>
</symbol>
<symbol id="simicon-eye" viewBox="0 0 1024 1024">
	<title>eye</title>
	<path class="path1" d="M0 548.571q0-19.429 11.429-39.429 80-130.857 215.143-210.286t285.429-79.429 285.429 79.429 215.143 210.286q11.429 20 11.429 39.429t-11.429 39.429q-80 131.429-215.143 210.571t-285.429 79.143-285.429-79.429-215.143-210.286q-11.429-20-11.429-39.429zM73.143 548.571q76 117.143 190.571 186.571t248.286 69.429 248.286-69.429 190.571-186.571q-86.857-134.857-217.714-201.714 34.857 59.429 34.857 128.571 0 105.714-75.143 180.857t-180.857 75.143-180.857-75.143-75.143-180.857q0-69.143 34.857-128.571-130.857 66.857-217.714 201.714zM338.286 475.429q0 11.429 8 19.429t19.429 8 19.429-8 8-19.429q0-49.143 34.857-84t84-34.857q11.429 0 19.429-8t8-19.429-8-19.429-19.429-8q-71.429 0-122.571 51.143t-51.143 122.571z"></path>
</symbol>
<symbol id="simicon-anchor" viewBox="0 0 1024 1024">
	<title>anchor</title>
	<path class="path1" d="M512 42.667q70.667 0 120.667 50t50 120.667q0 59-36 104.833t-92 60.167v515.333q71-8 134.167-41.167t108.667-83.5 72-117.333 26.5-139.667q0-17.667 12.5-30.167t30.167-12.5 30.167 12.5 12.5 30.167q0 95.667-37.167 182.5t-100 149.667-149.667 100-182.5 37.167-182.5-37.167-149.667-100-100-149.667-37.167-182.5q0-17.667 12.5-30.167t30.167-12.5 30.167 12.5 12.5 30.167q0 72.667 26.5 139.667t72 117.333 108.667 83.5 134.167 41.167v-515.333q-56-14.333-92-60.167t-36-104.833q0-70.667 50-120.667t120.667-50zM512 128q-35.333 0-60.333 25t-25 60.333 25 60.333 60.333 25 60.333-25 25-60.333-25-60.333-60.333-25z"></path>
</symbol>
<symbol id="simicon-arrow-left" viewBox="0 0 1024 1024">
	<title>arrow-left</title>
	<path class="path1" d="M426.667 170.667q17.667 0 30.167 12.5t12.5 30.167q0 18-12.667 30.333l-225.667 225.667h665q17.667 0 30.167 12.5t12.5 30.167-12.5 30.167-30.167 12.5h-665l225.667 225.667q12.667 12.333 12.667 30.333 0 17.667-12.5 30.167t-30.167 12.5q-18 0-30.333-12.333l-298.667-298.667q-12.333-13-12.333-30.333t12.333-30.333l298.667-298.667q12.667-12.333 30.333-12.333z"></path>
</symbol>
<symbol id="simicon-arrow-right" viewBox="0 0 1024 1024">
	<title>arrow-right</title>
	<path class="path1" d="M597.333 170.667q18 0 30.333 12.333l298.667 298.667q12.333 12.333 12.333 30.333t-12.333 30.333l-298.667 298.667q-12.333 12.333-30.333 12.333-18.333 0-30.5-12.167t-12.167-30.5q0-18 12.333-30.333l226-225.667h-665q-17.667 0-30.167-12.5t-12.5-30.167 12.5-30.167 30.167-12.5h665l-226-225.667q-12.333-12.333-12.333-30.333 0-18.333 12.167-30.5t30.5-12.167z"></path>
</symbol>
<symbol id="simicon-arrow-up" viewBox="0 0 1024 1024">
	<title>arrow-up</title>
	<path class="path1" d="M512 85.333q18 0 30.333 12.333l298.667 298.667q12.333 12.333 12.333 30.333 0 18.333-12.167 30.5t-30.5 12.167q-18 0-30.333-12.333l-225.667-226v665q0 17.667-12.5 30.167t-30.167 12.5-30.167-12.5-12.5-30.167v-665l-225.667 226q-12.333 12.333-30.333 12.333-18.333 0-30.5-12.167t-12.167-30.5q0-18 12.333-30.333l298.667-298.667q12.333-12.333 30.333-12.333z"></path>
</symbol>
<symbol id="simicon-arrow-down" viewBox="0 0 1024 1024">
	<title>arrow-down</title>
	<path class="path1" d="M512 85.333q17.667 0 30.167 12.5t12.5 30.167v665l225.667-226q12.333-12.333 30.333-12.333 18.333 0 30.5 12.167t12.167 30.5q0 18-12.333 30.333l-298.667 298.667q-12.333 12.333-30.333 12.333t-30.333-12.333l-298.667-298.667q-12.333-12.333-12.333-30.333 0-18.333 12.167-30.5t30.5-12.167q18 0 30.333 12.333l225.667 226v-665q0-17.667 12.5-30.167t30.167-12.5z"></path>
</symbol>
<symbol id="simicon-plus" viewBox="0 0 1024 1024">
	<title>plus</title>
	<path class="path1" d="M512 85.333q17.667 0 30.167 12.5t12.5 30.167v341.333h341.333q17.667 0 30.167 12.5t12.5 30.167-12.5 30.167-30.167 12.5h-341.333v341.333q0 17.667-12.5 30.167t-30.167 12.5-30.167-12.5-12.5-30.167v-341.333h-341.333q-17.667 0-30.167-12.5t-12.5-30.167 12.5-30.167 30.167-12.5h341.333v-341.333q0-17.667 12.5-30.167t30.167-12.5z"></path>
</symbol>
<symbol id="simicon-minus" viewBox="0 0 1024 1024">
	<title>minus</title>
	<path class="path1" d="M128 469.333h768q17.667 0 30.167 12.5t12.5 30.167-12.5 30.167-30.167 12.5h-768q-17.667 0-30.167-12.5t-12.5-30.167 12.5-30.167 30.167-12.5z"></path>
</symbol>
<symbol id="simicon-check" viewBox="0 0 1024 1024">
	<title>check</title>
	<path class="path1" d="M896 213.333q18.333 0 30.5 12.167t12.167 30.5q0 18-12.333 30.333l-512 512q-12.333 12.333-30.333 12.333t-30.333-12.333l-256-256q-12.333-12.333-12.333-30.333 0-18.333 12.167-30.5t30.5-12.167q18 0 30.333 12.333l225.667 226 481.667-482q12.333-12.333 30.333-12.333z"></path>
</symbol>
<symbol id="simicon-cross" viewBox="0 0 1024 1024">
	<title>cross</title>
	<path class="path1" d="M810.667 170.667q18.333 0 30.5 12.167t12.167 30.5q0 18-12.333 30.333l-268.667 268.333 268.667 268.333q12.333 12.333 12.333 30.333 0 18.333-12.167 30.5t-30.5 12.167q-18 0-30.333-12.333l-268.333-268.667-268.333 268.667q-12.333 12.333-30.333 12.333-18.333 0-30.5-12.167t-12.167-30.5q0-18 12.333-30.333l268.667-268.333-268.667-268.333q-12.333-12.333-12.333-30.333 0-18.333 12.167-30.5t30.5-12.167q18 0 30.333 12.333l268.333 268.667 268.333-268.667q12.333-12.333 30.333-12.333z"></path>
</symbol>
<symbol id="simicon-menu" viewBox="0 0 1024 1024">
	<title>menu</title>
	<path class="path1" d="M128 213.333h768q17.667 0 30.167 12.5t12.5 30.167-12.5 30.167-30.167 12.5h-768q-17.667 0-30.167-12.5t-12.5-30.167 12.5-30.167 30.167-12.5zM128 725.333h768q17.667 0 30.167 12.5t12.5 30.167-12.5 30.167-30.167 12.5h-768q-17.667 0-30.167-12.5t-12.5-30.167 12.5-30.167 30.167-12.5zM128 469.333h768q17.667 0 30.167 12.5t12.5 30.167-12.5 30.167-30.167 12.5h-768q-17.667 0-30.167-12.5t-12.5-30.167 12.5-30.167 30.167-12.5z"></path>
</symbol>
<symbol id="simicon-inbox" viewBox="0 0 1024 1024">
	<title>inbox</title>
	<path class="path1" d="M512 42.667q17.667 0 30.167 12.5t12.5 30.167v494.333l140.333-140.667q12.333-12.333 30.333-12.333 18.333 0 30.5 12.167t12.167 30.5q0 18-12.333 30.333l-213.333 213.333q-12.333 12.333-30.333 12.333t-30.333-12.333l-213.333-213.333q-12.333-13-12.333-30.333 0-17.667 12.5-30.167t30.167-12.5q18 0 30.333 12.333l140.333 140.667v-494.333q0-17.667 12.5-30.167t30.167-12.5zM938.667 640q17.667 0 30.167 12.5t12.5 30.167v170.667q0 53.333-37 90.333-37.667 37.667-90 37.667h-683.667q-52.333 0-90.667-37.333-37.333-38.333-37.333-90.667v-170.667q0-17.667 12.5-30.167t30.167-12.5 30.167 12.5 12.5 30.167v170.667q0 17.667 12.5 30.167t30.167 12.5h683.667q17.333 0 29.5-12.5t12.167-30.167v-170.667q0-17.667 12.5-30.167t30.167-12.5z"></path>
</symbol>
<symbol id="simicon-github" viewBox="0 0 1024 1024">
	<title>github</title>
	<path class="path1" d="M674.816 579.072c-36.762 0-66.56 41.267-66.56 92.109 0 50.893 29.798 92.16 66.56 92.16s66.56-41.267 66.56-92.16c-0.051-50.893-29.85-92.109-66.56-92.109zM906.547 339.251c7.578-18.688 7.936-124.928-32.461-226.611 0 0-92.774 10.138-233.062 106.445-29.44-8.141-79.258-12.186-129.024-12.186-49.818 0-99.584 4.096-129.075 12.186-140.237-96.307-232.96-106.445-232.96-106.445-40.397 101.683-40.090 207.923-32.461 226.611-47.514 51.61-76.544 113.562-76.544 198.195 0 367.923 305.254 373.811 382.31 373.811 17.459 0 52.173 0.051 88.781 0.102 36.608-0.051 71.322-0.102 88.678-0.102 77.107 0 382.31-5.888 382.31-373.811 0-84.634-28.979-146.586-76.493-198.195zM513.434 866.048h-2.816c-193.126 0-343.552-23.040-343.552-210.739 0-44.954 15.923-86.682 53.555-121.293 62.925-57.702 169.267-27.136 289.997-27.136 0.461 0 0.973 0 1.434-0.051 0.512 0 0.973 0.051 1.382 0.051 120.73 0 227.123-30.566 289.997 27.136 37.632 34.611 53.504 76.339 53.504 121.293 0 187.699-150.323 210.739-343.501 210.739zM349.235 579.072c-36.762 0-66.56 41.267-66.56 92.109 0 50.893 29.798 92.16 66.56 92.16s66.56-41.267 66.56-92.16c0-50.893-29.798-92.109-66.56-92.109z"></path>
</symbol>
<symbol id="simicon-twitter" viewBox="0 0 1024 1024">
	<title>twitter</title>
	<path class="path1" d="M983.040 219.802c-34.714 15.411-71.936 25.754-111.053 30.464 39.936-23.91 70.605-61.798 84.992-106.906-37.325 22.118-78.694 38.246-122.675 46.899-35.277-37.581-85.504-61.030-141.107-61.030-106.752 0-193.28 86.528-193.28 193.229 0 15.155 1.69 29.901 5.018 44.032-160.614-8.038-303.053-84.992-398.336-201.933-16.691 28.518-26.266 61.747-26.266 97.178 0 67.072 34.15 126.208 86.016 160.87-31.693-1.024-61.491-9.677-87.552-24.166 0 0.819 0 1.587 0 2.406 0 93.645 66.662 171.725 155.034 189.542-16.179 4.403-33.28 6.758-50.944 6.758-12.442 0-24.525-1.178-36.352-3.43 24.576 76.8 96 132.659 180.531 134.195-66.15 51.866-149.453 82.739-240.026 82.739-15.616 0-30.976-0.922-46.080-2.714 85.504 54.835 187.085 86.835 296.294 86.835 355.482 0 549.888-294.502 549.888-549.939 0-8.346-0.154-16.691-0.563-24.986 37.786-27.238 70.502-61.286 96.461-100.045z"></path>
</symbol>
</defs>
</svg>
