<?xml version="1.0" encoding="utf-8"?>
<!-- Generated by IcoMoon.io -->
<!DOCTYPE svg PUBLIC "-//W3C//DTD SVG 1.1//EN" "http://www.w3.org/Graphics/SVG/1.1/DTD/svg11.dtd">
<svg version="1.1" xmlns="http://www.w3.org/2000/svg" xmlns:xlink="http://www.w3.org/1999/xlink" width="32" height="32" viewBox="0 0 32 32">
<path fill="#000000" d="M16 0c-8.837 0-16 7.163-16 16s7.163 16 16 16c8.837 0 16-7.163 16-16s-7.163-16-16-16zM16 29.372c-7.374 0-13.372-5.999-13.372-13.372s5.999-13.372 13.372-13.372c7.373 0 13.372 5.999 13.372 13.372s-5.999 13.372-13.372 13.372z"></path>
<path fill="#000000" d="M25.886 12.875c-0.002-0.012-0.005-0.024-0.007-0.037-0.004-0.024-0.009-0.048-0.015-0.071-0.004-0.014-0.009-0.028-0.013-0.041-0.007-0.021-0.014-0.042-0.022-0.062-0.006-0.014-0.013-0.028-0.019-0.042-0.009-0.019-0.018-0.038-0.029-0.056-0.008-0.014-0.016-0.027-0.024-0.040-0.012-0.018-0.023-0.035-0.036-0.052-0.009-0.012-0.019-0.025-0.029-0.037-0.014-0.016-0.028-0.031-0.043-0.046-0.011-0.011-0.022-0.023-0.034-0.033-0.016-0.014-0.032-0.028-0.048-0.040-0.013-0.010-0.025-0.020-0.039-0.029-0.005-0.003-0.009-0.007-0.014-0.010l-9.043-6.029c-0.286-0.19-0.658-0.19-0.943 0l-9.043 6.029c-0.005 0.003-0.009 0.007-0.014 0.010-0.013 0.009-0.026 0.019-0.038 0.029-0.017 0.013-0.033 0.027-0.048 0.040-0.012 0.011-0.023 0.022-0.034 0.033-0.015 0.015-0.029 0.030-0.042 0.046-0.010 0.012-0.020 0.024-0.029 0.037-0.012 0.017-0.024 0.034-0.036 0.052-0.009 0.013-0.017 0.026-0.024 0.040-0.010 0.018-0.020 0.037-0.029 0.056-0.007 0.014-0.013 0.028-0.019 0.042-0.008 0.020-0.015 0.041-0.022 0.062-0.004 0.014-0.009 0.027-0.013 0.041-0.006 0.023-0.010 0.047-0.015 0.071-0.002 0.012-0.005 0.024-0.007 0.037-0.005 0.036-0.008 0.073-0.008 0.111v6.029c0 0.037 0.003 0.074 0.008 0.111 0.002 0.012 0.005 0.024 0.007 0.036 0.004 0.024 0.009 0.048 0.015 0.071 0.004 0.014 0.009 0.028 0.013 0.041 0.007 0.021 0.013 0.042 0.022 0.062 0.006 0.014 0.012 0.028 0.019 0.041 0.009 0.019 0.019 0.038 0.029 0.057 0.008 0.013 0.016 0.026 0.024 0.039 0.011 0.018 0.023 0.035 0.036 0.052 0.009 0.013 0.019 0.025 0.029 0.037 0.013 0.016 0.027 0.031 0.042 0.046 0.011 0.011 0.022 0.023 0.034 0.033 0.015 0.014 0.032 0.028 0.048 0.041 0.012 0.010 0.025 0.020 0.038 0.029 0.005 0.003 0.009 0.007 0.014 0.010l9.043 6.029c0.143 0.095 0.307 0.143 0.472 0.143s0.329-0.048 0.472-0.143l9.043-6.029c0.005-0.003 0.009-0.007 0.014-0.010 0.013-0.009 0.026-0.019 0.039-0.029 0.016-0.013 0.032-0.026 0.048-0.041 0.012-0.010 0.023-0.022 0.034-0.033 0.015-0.015 0.029-0.030 0.043-0.046 0.010-0.012 0.020-0.024 0.029-0.037 0.013-0.017 0.024-0.034 0.036-0.052 0.008-0.013 0.016-0.026 0.024-0.039 0.011-0.019 0.020-0.037 0.029-0.057 0.006-0.014 0.013-0.027 0.019-0.041 0.008-0.021 0.015-0.042 0.022-0.062 0.004-0.014 0.010-0.027 0.013-0.041 0.006-0.023 0.011-0.047 0.015-0.071 0.002-0.012 0.005-0.024 0.007-0.036 0.005-0.037 0.008-0.074 0.008-0.111v-6.029c0-0.037-0.003-0.074-0.008-0.111zM16.85 8.546l6.662 4.441-2.976 1.991-3.686-2.466v-3.966zM15.15 8.546v3.966l-3.686 2.466-2.976-1.991 6.662-4.441zM7.807 14.577l2.127 1.423-2.127 1.423v-2.846zM15.15 23.454l-6.662-4.441 2.976-1.99 3.686 2.465v3.966zM16 18.012l-3.007-2.011 3.007-2.011 3.007 2.011-3.007 2.011zM16.85 23.454v-3.966l3.686-2.465 2.976 1.99-6.662 4.441zM24.193 17.423l-2.127-1.423 2.127-1.423v2.846z"></path>
</svg>
